<svg xmlns="http://www.w3.org/2000/svg" xmlns:xlink="http://www.w3.org/1999/xlink" width="794" zoomAndPan="magnify" viewBox="0 0 595.5 419.249996" height="559" preserveAspectRatio="xMidYMid meet" version="1.0"><defs><clipPath id="0e600f718f"><path d="M 34 0 L 594.71875 0 L 594.71875 418.5 L 34 418.5 Z M 34 0 " clip-rule="nonzero"/></clipPath><clipPath id="37d3ef850a"><path d="M 0.78125 0 L 560.71875 0 L 560.71875 418.5 L 0.78125 418.5 Z M 0.78125 0 " clip-rule="nonzero"/></clipPath><clipPath id="c11e68feba"><path d="M 233.070312 331.0625 L 317.484375 331.0625 L 317.484375 415.476562 L 233.070312 415.476562 Z M 233.070312 331.0625 " clip-rule="nonzero"/></clipPath><clipPath id="bba6230604"><path d="M 275.277344 331.0625 C 251.964844 331.0625 233.070312 349.960938 233.070312 373.269531 C 233.070312 396.578125 251.964844 415.476562 275.277344 415.476562 C 298.585938 415.476562 317.484375 396.578125 317.484375 373.269531 C 317.484375 349.960938 298.585938 331.0625 275.277344 331.0625 Z M 275.277344 331.0625 " clip-rule="nonzero"/></clipPath><clipPath id="9dda62d062"><path d="M 0.0703125 0.0625 L 84.484375 0.0625 L 84.484375 84.476562 L 0.0703125 84.476562 Z M 0.0703125 0.0625 " clip-rule="nonzero"/></clipPath><clipPath id="9791868d98"><path d="M 42.277344 0.0625 C 18.964844 0.0625 0.0703125 18.960938 0.0703125 42.269531 C 0.0703125 65.578125 18.964844 84.476562 42.277344 84.476562 C 65.585938 84.476562 84.484375 65.578125 84.484375 42.269531 C 84.484375 18.960938 65.585938 0.0625 42.277344 0.0625 Z M 42.277344 0.0625 " clip-rule="nonzero"/></clipPath><clipPath id="8a1ff3db6b"><rect x="0" width="85" y="0" height="85"/></clipPath><clipPath id="77be4b4ab3"><path d="M 44.402344 218.402344 L 199.117188 218.402344 L 199.117188 373.117188 L 44.402344 373.117188 Z M 44.402344 218.402344 " clip-rule="nonzero"/></clipPath><clipPath id="2fdf1a33b7"><path d="M 121.828125 218.402344 C 79.066406 218.402344 44.402344 253.066406 44.402344 295.828125 C 44.402344 338.589844 79.066406 373.253906 121.828125 373.253906 C 164.589844 373.253906 199.253906 338.589844 199.253906 295.828125 C 199.253906 253.066406 164.589844 218.402344 121.828125 218.402344 Z M 121.828125 218.402344 " clip-rule="nonzero"/></clipPath><clipPath id="6548167e3b"><path d="M 199.269531 3.023438 L 495.433594 3.023438 L 495.433594 299.1875 L 199.269531 299.1875 Z M 199.269531 3.023438 " clip-rule="nonzero"/></clipPath><clipPath id="cf7a019197"><path d="M 347.375 3.023438 C 265.578125 3.023438 199.269531 69.335938 199.269531 151.132812 C 199.269531 232.929688 265.578125 299.242188 347.375 299.242188 C 429.175781 299.242188 495.484375 232.929688 495.484375 151.132812 C 495.484375 69.335938 429.175781 3.023438 347.375 3.023438 Z M 347.375 3.023438 " clip-rule="nonzero"/></clipPath><clipPath id="de7b6e07a0"><rect x="0" width="561" y="0" height="419"/></clipPath><clipPath id="35b8c98837"><rect x="0" width="561" y="0" height="419"/></clipPath></defs><g clip-path="url(#0e600f718f)"><g transform="matrix(1, 0, 0, 1, 34, 0.000000000000000917)"><g clip-path="url(#35b8c98837)"><g clip-path="url(#37d3ef850a)"><g transform="matrix(1, 0, 0, 1, 0, 0.000000000000000917)"><g clip-path="url(#de7b6e07a0)"><g clip-path="url(#c11e68feba)"><g clip-path="url(#bba6230604)"><g transform="matrix(1, 0, 0, 1, 233, 331)"><g clip-path="url(#8a1ff3db6b)"><g clip-path="url(#9dda62d062)"><g clip-path="url(#9791868d98)"><path fill="#ffa300" d="M 0.0703125 0.0625 L 84.484375 0.0625 L 84.484375 84.476562 L 0.0703125 84.476562 Z M 0.0703125 0.0625 " fill-opacity="1" fill-rule="nonzero"/></g></g></g></g></g></g><g clip-path="url(#77be4b4ab3)"><g clip-path="url(#2fdf1a33b7)"><path stroke-linecap="butt" transform="matrix(1.105088, 0, 0, 1.105088, 44.403117, 218.403718)" fill="none" stroke-linejoin="miter" d="M 70.062281 -0.00124327 C 31.366986 -0.00124327 -0.000699535 31.366442 -0.000699535 70.061737 C -0.000699535 108.757032 31.366986 140.124717 70.062281 140.124717 C 108.757576 140.124717 140.125261 108.757032 140.125261 70.061737 C 140.125261 31.366442 108.757576 -0.00124327 70.062281 -0.00124327 Z M 70.062281 -0.00124327 " stroke="#ffa300" stroke-width="18.956522" stroke-opacity="1" stroke-miterlimit="4"/></g></g><g clip-path="url(#6548167e3b)"><g clip-path="url(#cf7a019197)"><path stroke-linecap="butt" transform="matrix(1.105088, 0, 0, 1.105088, 199.269179, 3.025181)" fill="none" stroke-linejoin="miter" d="M 134.021705 -0.00157754 C 60.0033 -0.00157754 0.000318936 60.004938 0.000318936 134.023344 C 0.000318936 208.041749 60.0033 268.048265 134.021705 268.048265 C 208.043645 268.048265 268.046626 208.041749 268.046626 134.023344 C 268.046626 60.004938 208.043645 -0.00157754 134.021705 -0.00157754 Z M 134.021705 -0.00157754 " stroke="#002855" stroke-width="55.515526" stroke-opacity="1" stroke-miterlimit="4"/></g></g></g></g></g></g></g></g></svg>